<?xml version="1.0" encoding="utf-8"?>
<!-- Generator: Adobe Illustrator 26.0.3, SVG Export Plug-In . SVG Version: 6.00 Build 0)  -->
<svg version="1.0" id="katman_1" xmlns="http://www.w3.org/2000/svg" xmlns:xlink="http://www.w3.org/1999/xlink" x="0px" y="0px"
	 viewBox="0 0 600 450" style="enable-background:new 0 0 600 450;" xml:space="preserve">
<style type="text/css">
	.st0{fill:#010202;}
</style>
<g>
	<g>
		<path class="st0" d="M284.6,232.1h-20.9c-3.4,0-6.1,2.7-6.1,6.1s2.7,6.1,6.1,6.1h20.9c3.4,0,6.1-2.7,6.1-6.1
			C290.7,234.8,288,232.1,284.6,232.1z"/>
	</g>
</g>
<g>
	<g>
		<path class="st0" d="M409.3,66.3h-90.1V54.7c0-1.9-0.9-3.7-2.4-4.8c-1.5-1.2-3.5-1.5-5.3-1.1L189.4,81.3c-2.7,0.7-4.5,3.1-4.5,5.9
			V107c0,3.4,2.7,6.1,6.1,6.1s6.1-2.7,6.1-6.1v-15l109.9-29.3V389l-109.9-22V127.5c0-3.4-2.7-6.1-6.1-6.1s-6.1,2.7-6.1,6.1v244.5
			c0,2.9,2.1,5.4,4.9,6l122.1,24.4c0.4,0.1,0.8,0.1,1.2,0.1c1.4,0,2.8-0.5,3.9-1.4c1.4-1.2,2.2-2.9,2.2-4.7v-11.6h56.3
			c3.4,0,6.1-2.7,6.1-6.1s-2.7-6.1-6.1-6.1h-56.3v-17.4h60.5c3.4,0,6.1-2.7,6.1-6.1V102c0-3.4-2.7-6.1-6.1-6.1h-60.5V78.5h84v294.1
			h-8.7c-3.4,0-6.1,2.7-6.1,6.1s2.7,6.1,6.1,6.1h14.8c3.4,0,6.1-2.7,6.1-6.1V72.4C415.4,69,412.6,66.3,409.3,66.3z M373.5,108.2V343
			h-54.3V108.2H373.5z"/>
	</g>
</g>
</svg>
